<?xml version="1.0" standalone="no"?>
<!DOCTYPE svg PUBLIC "-//W3C//DTD SVG 1.1//EN" "http://www.w3.org/Graphics/SVG/1.1/DTD/svg11.dtd" >
<svg xmlns="http://www.w3.org/2000/svg" xmlns:xlink="http://www.w3.org/1999/xlink" version="1.1">
<metadata></metadata>
<defs>
<font id="sketchiquaaregular" horiz-adv-x="2144" >
<font-face units-per-em="2048" ascent="1638" descent="-410" />
<missing-glyph horiz-adv-x="1024" />
<glyph horiz-adv-x="0" />
<glyph horiz-adv-x="682" />
<glyph unicode=" "  horiz-adv-x="1024" />
<glyph unicode="&#x09;" horiz-adv-x="1024" />
<glyph unicode="&#xa0;" horiz-adv-x="1024" />
<glyph unicode="0" d="M168 6q0 -10 10 -10h101v-78q0 -10 10 -10q12 0 12 10v80l1589 -2q12 0 13 12q0 12 -13 12h-1589v2026h1608v-2079q0 -10 10 -10q12 0 12 10v2079h33q12 0 12 10q0 12 -12 12h-33v46q0 10 -12 10q-10 0 -10 -10v-48h-1608v23q0 10 -12 10q-10 0 -10 -10v-23h-64 q-10 0 -10 -12q0 -10 10 -10h64v-2026h-101q-10 0 -10 -12zM627 1661q0 -10 10 -10h51v-1223h-35q-10 0 -10 -12q0 -10 10 -10h35v-41q0 -10 10 -11q12 0 13 11v43h796v-35q0 -10 11 -11q12 0 12 11v35l45 -2q12 0 12 12t-12 12h-45v1223h61q12 0 13 10q0 12 -13 12h-61v8 q0 10 -12 11q-10 0 -11 -11v-10h-796v51q0 10 -13 11q-10 0 -10 -11v-51h-51q-10 0 -10 -12zM711 430v1223h796v-1225z" />
<glyph unicode="1" d="M373 14q0 -10 10 -10h94v-12q0 -10 10 -10q13 0 13 10v14h1173v-53q0 -10 10 -10q12 0 13 10v53h63q12 0 13 10q0 12 -13 13h-63v366h67q12 -2 13 8q0 12 -13 13l-67 2v55q0 10 -13 10q-10 0 -10 -10v-55l-385 6v1614h148q12 0 12 10q0 12 -12 12h-148v41q0 10 -12 10 q-10 0 -10 -10v-43h-762v31q0 10 -12 10q-10 0 -11 -10v-31h-94q-10 0 -10 -12q0 -10 10 -10h94v-375h-35q-10 0 -10 -12q0 -10 10 -11h35v-47q0 -10 11 -10q12 0 12 10v49h368v-1224h-372v49q0 10 -13 10q-10 0 -10 -10v-49h-65q-10 0 -11 -13q0 -10 11 -10h65v-366h-94 q-10 0 -10 -13zM500 27v368h372v-47q0 -10 11 -10q12 0 12 10v47h33q12 0 12 11q0 12 -12 12h-33v1222h78q12 0 12 11q0 12 -12 12h-78v25q0 10 -12 10q-10 0 -11 -10v-27h-368v377h762v-1614h-35q-10 2 -10 -10q0 -10 10 -11l35 -2v-32q0 -10 10 -11q12 0 12 11v32l385 -6 v-368h-1173z" />
<glyph unicode="2" d="M195 6q0 -10 10 -10h41v-23q0 -10 10 -10q12 0 12 10v25h1596v-78q0 -10 10 -10q12 0 12 10v78h51q12 0 13 10q0 12 -13 12h-51v383h47q12 0 13 11q0 12 -13 12h-47v55q0 10 -12 11q-10 0 -10 -11v-57h-1174q-14 0 -10 -16h-23v426h1207v-33q0 -10 10 -10q12 0 12 10v33 h21q12 0 12 10q0 12 -12 12h-21v1178h47q12 0 13 10q0 12 -13 12h-47v21q0 10 -12 10q-10 0 -10 -10v-23h-1202v27q0 10 -13 10q-10 0 -10 -10v-27h-53q-10 0 -11 -12q0 -10 11 -10h53v-371h-49q-10 0 -10 -12q0 -10 10 -11h49v-26q0 -10 10 -10q12 0 13 10v28h804v-413 h-1198v43q0 10 -12 10q-10 0 -10 -10v-43h-6q-10 0 -11 -13q0 -10 11 -10h6v-1186h-41q-10 0 -10 -12zM268 18v1188h1198v-16q0 -10 11 -10q12 0 12 10v16h51q12 0 12 11q0 12 -12 12h-51v411q8 2 8 11q0 8 -8 10v27q0 10 -12 10q-10 0 -11 -10v-27h-804v373h1202v-1180 h-1207v10q0 10 -12 10q-10 0 -10 -10v-10h-21q-10 0 -10 -12q0 -10 10 -11h21v-423h-76q-10 0 -10 -13q0 -10 10 -10h76v-23q0 -10 10 -10q12 0 12 10v25h52q18 0 10 16h1145v-385h-1596z" />
<glyph unicode="3" d="M106 381q0 -4 5 -8v-361q0 -4 4 -8v-127q0 -10 10 -10q12 0 12 10v121h1565h29h294q12 0 13 10q0 12 -13 12h-278v2018h254q12 0 12 10q0 12 -12 12h-1475v94q0 10 -12 11q-10 0 -10 -11v-96h-10q-10 0 -11 -12q0 -10 11 -10h10v-375h-2q-10 0 -10 -12q0 -10 10 -11h2 v-147q0 -10 10 -10q12 0 12 10v149h797v-393h-797v109q0 10 -12 10q-10 0 -10 -10v-109q-8 -2 -8 -10t8 -10v-514q0 -10 10 -11q12 0 12 11v104h797v-393h-35h-1151h-6l-2 2v188q0 10 -12 11q-10 0 -11 -11v-233zM133 49v354h4h1151h35v-63q0 -10 10 -10q12 0 13 10v63h81 q12 0 13 11q0 12 -13 12h-81v391h49q12 0 12 10q0 12 -12 13h-49v387h53q12 0 12 10q0 12 -12 12h-53v391h45q12 0 12 11q0 12 -12 12h-45v49q0 10 -13 10q-10 0 -10 -10v-51h-797v377h1198v-2018h-22h-1565v21q0 4 -4 8zM526 838v389h797v-389h-797z" />
<glyph unicode="4" d="M152 2042q0 -10 10 -10h88v-1241q0 -4 4 -9v58h-76q-10 0 -10 -13q0 -12 10 -12h76v-37q0 -10 10 -10q12 0 12 10v39h375v-47q0 -10 11 -10q12 0 12 10v47h131q12 0 12 10q0 12 -12 13h-131v-21h805v-801h-84q-10 0 -11 -12q0 -10 11 -10h493v-37q0 -10 10 -10 q12 0 13 10v39l69 -2q12 0 13 12q0 12 -13 12h-69v2022h69q12 0 13 10q0 12 -13 12h-69v33q0 10 -13 10q-10 0 -10 -10v-35h-387v15q0 10 -12 10q-10 0 -10 -10v-15h-56q-10 0 -10 -12q0 -10 10 -10h56v-801h-793v795h115q12 0 12 10q0 12 -12 12h-115v45q0 10 -12 10 q-10 0 -10 -10v-47h-392v72q0 10 -12 10q-10 0 -10 -10v-72h-88q-10 0 -10 -12zM272 823v1211h392v-795h-35q-10 0 -11 -12q0 -10 11 -10h35v-37q0 -10 10 -11q12 0 12 11v39h793v-23q0 -10 10 -10q12 0 12 10v23h49q12 0 13 10q0 12 -13 12h-49v801h387v-2022h-387v801h78 q12 0 12 10q0 12 -12 13h-78v33q0 10 -12 10q-10 0 -10 -10v-35h-805v18q0 10 -12 10q-10 0 -11 -10v-22h-375v-23q0 -4 -1 1t-3 7z" />
<glyph unicode="5" horiz-adv-x="1685" d="M-156 0q0 -12 11 -12h168v-51q0 -10 10 -11q12 0 12 11v53h1587h6v-94q0 -10 11 -11q12 0 12 11v1323h170q10 0 10 10q0 12 -10 12h-170v47q0 10 -12 10q-10 0 -11 -10v-49h-1015v387h624v-57q0 -10 10 -10q12 0 13 10v57h39q10 0 10 10q0 12 -10 13h-39v383h96 q10 0 10 10q0 12 -10 12h-96v72q0 10 -13 10q-10 0 -10 -10v-74h-1040v49q0 10 -12 10q-10 0 -11 -10v-49h-63q-10 0 -10 -12q0 -10 10 -10h63v-791q-10 0 -10 -10v-400h-37q-10 0 -10 -12q0 -10 10 -10h37v-35q0 -10 10 -10q12 0 13 10v37h1034v-389h-1186v39q0 10 -12 10 q-10 0 -10 -10v-39h-54q-10 0 -10 -12q0 -10 10 -11h54v-387h-168q-10 0 -11 -10zM45 10v389h1186v-73q0 -10 10 -11q12 0 12 11v483h76q10 0 10 10q0 12 -10 12h-76v29q0 10 -12 10q-10 0 -10 -10v-31h-1034v373q10 0 10 10v820h1040v-385h-624v63q0 10 -13 10 q-10 0 -10 -10v-63h-39q-10 0 -10 -13q0 -10 10 -10h39v-385h-106q-10 0 -11 -12q0 -10 11 -10h106q2 -8 10 -9q8 0 11 11h1017v-1209h-6h-1587z" />
<glyph unicode="6" d="M145 2050q0 -10 11 -10h96v-2042h-88q-10 0 -10 -10q0 -12 10 -13h88v-20q0 -10 10 -10q12 0 12 10v22h1620v-47q0 -10 11 -10q12 0 12 10v47l49 -2q12 0 12 13q0 12 -12 12h-49v1219h70q12 0 12 10q0 12 -12 12h-70v45q0 10 -12 10q-10 0 -11 -10v-47h-772v51 q0 10 -12 10q-10 0 -10 -10v-51h-39q-10 0 -10 -12q0 -10 10 -10h39v-383h-64q-10 0 -10 -13q0 -10 10 -10h64v-49q0 -10 10 -10q12 0 12 10v51h355v-389h-2h-779v1208h789v-63q0 -10 10 -10q12 0 12 10v63h49q12 0 13 10q0 12 -13 13h-49v387h86q12 0 13 10q0 12 -13 12 h-86v45q0 10 -12 11q-10 0 -10 -11v-47h-1211v39q0 10 -12 10q-10 0 -10 -10v-39h-96q-10 0 -11 -12zM274 0v2042h1211v-389h-789v39q0 10 -12 10q-10 0 -10 -10v-39h-64q-10 0 -10 -13q0 -10 10 -10h64v-1206h-15q-10 0 -10 -12q0 -10 10 -11h15v-73q0 -10 10 -11 q12 0 12 11v75h779h2v-67q0 -10 10 -10q12 0 12 10v477h66q12 0 12 10q0 12 -12 13h-66v57q0 10 -12 10q-10 0 -10 -10v-59h-355v385h772v-1221z" />
<glyph unicode="7" d="M113 1649q0 -10 10 -11h178v-69q0 -10 10 -10q12 0 13 10v69h1177v-1620h-112q-10 0 -11 -12q0 -10 11 -10h112v-37q0 -10 10 -10q12 0 13 10v37h391v-12q0 -10 10 -11q12 0 12 11v12h58q12 0 12 10q0 12 -12 12h-58v2026h82q12 0 13 10q0 12 -13 12h-82v60q0 10 -12 10 q-10 0 -10 -10v-60h-1589l2 146q0 10 -13 10q-10 0 -10 -10l-2 -146h-65q-10 0 -11 -12q0 -10 11 -10h65l-2 -383h-178q-10 0 -10 -12zM324 1661l2 383h1589v-2026h-391v1620h78q12 0 12 11q0 12 -12 12h-78v18q0 10 -13 11q-10 0 -10 -11v-18h-1177z" />
<glyph unicode="8" d="M162 1229q0 -10 10 -10h74v-1201h-37q-10 0 -10 -12q0 -10 10 -10h37v-35q0 -10 10 -10q12 0 12 10v37h1583v-33q0 -10 11 -10q12 0 12 10v33h96q12 0 12 10q0 12 -12 12h-96v1194h49q12 0 12 11q0 12 -12 12h-49v76q0 10 -12 10q-10 0 -11 -10v-78h-172v799q8 2 9 10 q0 8 -9 10v74q0 10 -12 10q-10 0 -10 -10v-74h-1215v35q0 10 -12 10q-10 0 -10 -10v-35h-62q-10 0 -10 -12q0 -10 10 -10h62v-791h-152v39q0 10 -12 10q-10 0 -10 -10v-39h-74q-10 0 -10 -12zM268 18v1203h152v-35q0 -10 10 -10q12 0 12 10v35h84q12 0 13 10q0 12 -13 12 h-84v791h1215v-799h-33q-10 0 -10 -12q0 -10 10 -11h33v-38q0 -10 10 -11q12 0 12 11v40h172v-1196h-1583zM567 829q0 -10 11 -10h73v-403h-45q-10 0 -10 -13q0 -10 10 -10h45v-22q0 -10 11 -11q12 1 12 11v24h780v-45q0 -10 10 -10q12 0 13 10v45h32q12 0 13 11 q0 12 -13 12h-32v403h39q12 0 12 10q0 12 -12 13h-39v26q0 10 -13 11q-10 0 -10 -11v-28h-780v28q0 10 -12 11q-10 0 -11 -11v-28h-73q-10 0 -11 -13zM674 416v403h780v-403h-780zM782 1231q0 -10 11 -10h53v-27q0 -10 10 -10q12 0 12 10v29h387v-70q0 -10 11 -10 q12 0 12 10v70l29 -2q12 -2 12 10q0 14 -12 14h-29v395h31q12 0 12 11q0 12 -12 12h-31v27q0 10 -12 10q-10 0 -11 -10v-29h-387v18q0 10 -12 11q-10 0 -10 -11v-18h-41q-10 0 -10 -12q0 -10 10 -11h41v-395h-53q-10 0 -11 -12zM868 1245v395h387v-397z" />
<glyph unicode="9" d="M145 809q0 -10 11 -10h71v-45q0 -10 11 -11q12 0 12 11v47h772v-51q0 -10 10 -11q12 0 12 11v51h37q12 0 13 10q0 12 -13 12h-37v383h62q12 0 12 11q0 12 -12 12h-62v49q0 10 -12 10q-10 0 -10 -10v-51h-354v389h780v-1208h-789v63q0 10 -12 10q-10 0 -10 -10v-63h-51 q-10 0 -11 -13q0 -10 11 -10h51v-387h-88q-10 0 -10 -10q0 -12 10 -13h88v-45q0 -10 10 -10q12 0 12 10v47h1211v-38q0 -10 10 -11q12 0 12 11v38h95q12 0 12 13q0 10 -12 10h-95v2042h86q12 0 13 10q0 12 -13 12h-86v21q0 10 -12 10q-10 0 -10 -10v-23h-1620v47 q0 10 -12 11q-10 0 -11 -11v-47h-51q-10 0 -10 -12q0 -10 10 -10h51v-1219h-71q-10 0 -11 -12zM250 821v1221h1620v-2044h-1211v389h789v-39q0 -10 10 -10q12 0 12 10v39h62q12 0 12 10q0 12 -12 13h-62v1206h13q12 0 12 10q0 12 -12 12h-13v74q0 10 -12 10q-10 0 -10 -10 v-76h-780v68q0 10 -13 10q-10 0 -10 -10v-477h-67q-10 0 -11 -13q0 -10 11 -10h67v-57q0 -10 10 -10q12 0 13 10v59h354v-385h-772z" />
<glyph unicode="A" horiz-adv-x="1986" d="M68 2050q0 -10 10 -10h104l-8 -2026h-72q-10 0 -10 -12q0 -10 10 -10h72v-115q0 -10 10 -10q12 0 13 10v117h383v-72q0 -10 10 -10q12 0 12 10v72l82 -2q12 0 12 12t-12 12h-82v801h801v-794h-47q-10 0 -10 -13q0 -10 10 -10h47v-49q0 -10 10 -10q12 0 12 10v51h359v-80 q0 -10 10 -10q12 0 12 10v60q8 0 9 10v10h94q12 0 12 10q0 12 -12 13h-94v2017h94q12 0 12 10q0 12 -12 12h-94v37q0 10 -13 10q-10 0 -10 -10v-39h-1587v64q0 10 -12 10q-10 0 -11 -10v-64h-104q-10 0 -10 -12zM197 16l8 2026h1587v-2019h-367v794h111q12 0 12 10 q0 12 -12 13h-111v32q0 10 -12 11q-10 0 -10 -11v-34h-801v51q0 10 -12 10q-10 0 -10 -10v-51h-56q-10 0 -10 -13q0 -10 10 -10h56v-801zM457 1649q0 -10 10 -11h100v-407h-59q-10 0 -10 -12q0 -10 10 -11h59q0 -10 11 -10q12 0 12 10h817v-49q0 -10 10 -10q12 0 13 10v51 h65q12 0 12 11q0 12 -12 12h-65v407h53q12 0 12 11q0 12 -12 12h-53v41q0 10 -13 10q-10 0 -10 -10v-43h-817v59q0 10 -12 11q-10 0 -11 -11v-59h-100q-10 0 -10 -12zM590 1231v409h817v-409h-817z" />
<glyph unicode="B" horiz-adv-x="1947" d="M63 2q0 -10 11 -10h80v-62q0 -10 10 -10q12 0 12 10v64h1596v-68q0 -10 10 -10q12 0 12 10v68l78 -2q12 0 12 12t-12 12h-78v1194h4q12 0 12 11q0 12 -12 12h-4v57q0 10 -12 10q-10 0 -10 -10v-59h-379v366q0 4 -4 9v452h110q12 0 12 10q0 12 -12 13h-110v16q0 10 -13 10 q-10 0 -10 -10v-18h-1190v26q0 10 -12 11q-10 0 -10 -11v-26h-43q-10 0 -11 -13q0 -10 11 -10h43v-2042h-80q-10 0 -11 -12zM176 16v2042h1190v-485q0 -4 4 -8v-334h-72q-10 0 -10 -12q0 -10 10 -11h72v-16q0 -10 10 -10q12 0 13 10v18h379v-1196zM481 1661q0 -10 11 -10h71 v-412h-31q-10 2 -10 -10q0 -10 10 -10l31 -2v-46q0 -10 10 -10q12 0 13 10v46l383 -3v-55q0 -10 10 -10q12 0 12 10v49l4 6h45q12 -2 13 9q-1 12 -13 12l-45 2v416h78q12 0 12 10q0 12 -12 12h-78v17q0 10 -12 10q-10 0 -10 -10v-19h-387v39q0 10 -13 10q-10 0 -10 -10v-39 h-71q-10 0 -11 -12zM489 825q0 -10 11 -10h55v-391h-27q-10 0 -10 -12q0 -10 10 -11h27v-41q0 -10 10 -10q13 0 13 10v43h804v-108q0 -10 11 -10q12 0 12 10v108h53q12 0 12 11q0 12 -12 12h-53v391h90q12 0 12 10q0 12 -12 13h-90v69q0 10 -12 11q-10 0 -11 -11v-71h-804 v43q0 10 -13 10q-10 0 -10 -10v-43h-55q-10 0 -11 -13zM578 424v391h804v-391h-804zM586 1239v414h387v-416z" />
<glyph unicode="C" horiz-adv-x="1779" d="M-63 2046q0 -10 12 -10h254v-2016q0 -8 4 -8q0 -16 12 -16h1593v-119q0 -10 11 -10q12 0 12 10v127q4 4 4 8v361q4 4 4 8v233q0 10 -12 11q-10 0 -10 -11v-188l-2 -2h-7h-1185v2v1214h796v-149q0 -10 11 -10q12 0 12 10v149h2q10 0 10 11q0 12 -10 12h-2v375h10 q10 0 10 10q0 12 -10 12h-10v94q0 10 -12 11q-10 0 -11 -11v-96h-1474q-12 0 -12 -12zM225 20v2018h1198v-377h-796v35q0 10 -13 10q-10 0 -10 -10v-35h-45q-12 0 -12 -12q0 -10 12 -11h45v-1212q0 -8 4 -8q0 -16 13 -17h1191h3q0 2 2 2v-354q-4 -4 -5 -8v-23z" />
<glyph unicode="D" horiz-adv-x="1970" d="M55 6q0 -10 11 -10h100v-78q0 -10 10 -10q12 0 12 10v80l1588 -2q0 -8 10 -8h14v-107q0 -10 10 -10q12 0 13 10v109h82q10 0 10 10q0 12 -10 12h-82v1637h16q10 0 10 10q0 12 -10 12h-16v33q0 10 -13 10q-10 0 -10 -10v-35h-313q0 4 -8 4h-62v10q0 10 -8 11v352h8 q10 0 10 10q0 12 -10 12h-8v37q0 10 -12 11q-10 0 -11 -11v-39h-1198v23q0 10 -12 10q-10 0 -10 -10v-23h-68q-10 0 -10 -12q0 -10 10 -10h68v-2026h-100q-10 0 -11 -12zM188 18v2028h1198v-373h-788v51q0 10 -12 11q-10 0 -11 -11v-51h-51q-10 0 -10 -12q0 -10 10 -10h51 v-1223h-34q-10 0 -11 -12q0 -10 11 -10h34v-41q0 -10 11 -11q12 0 12 11v43h797v-35q0 -10 10 -11q12 0 12 11v35h45q10 0 11 10q0 12 -11 12h-45v1219h383v-1639h-12q0 10 -10 10zM598 430v1223h797v-1225z" />
<glyph unicode="E" horiz-adv-x="1830" d="M-49 8q0 -12 10 -12h295h29h1566v-119q0 -10 11 -10q12 0 12 10v127q4 4 4 8v361q4 4 4 8v233q0 10 -12 11q-10 0 -10 -11v-188q-2 0 -2 -2h-3h-6h-1151h-32v393h796v-104q0 -10 11 -11q12 0 12 11v514q8 2 8 10t-8 10v109q0 10 -12 10q-10 0 -11 -10v-109h-796v393h1001 v-149q0 -10 10 -10q12 0 13 10v149q10 0 10 11q0 12 -10 12v375h8q10 0 10 10q0 12 -10 12h-8v94q0 10 -13 11q-10 0 -10 -11v-96h-1681q-10 0 -11 -12q0 -10 11 -10h256v-2016h-281q-10 0 -10 -12zM264 18v2v2018h1403v-377h-1001v51q0 10 -13 10q-10 0 -10 -10v-51h-47 q-10 0 -10 -12q0 -10 10 -11h47v-391h-55q-10 0 -10 -12q0 -10 10 -10h55v-387h-51q-10 0 -10 -13q0 -10 10 -10h51v-391h-84q-10 0 -10 -12q0 -10 10 -11h84v-61q0 -10 10 -10q12 0 13 10v63h32h1151h6v-354q-4 -2 -4 -8v-23h-1566h-21zM666 838v389h796v-389h-796z" />
<glyph unicode="F" horiz-adv-x="1857" d="M-16 2042q0 -10 10 -10h133v-2014h-117q-10 0 -10 -12q0 -10 10 -10h117v-74q0 -10 10 -10q12 0 13 10v76h387v-55q0 -10 10 -11q12 0 12 11v55l213 -2q12 0 12 12t-12 12h-213v789h797v-76q0 -10 10 -10q12 0 12 10v76h45q12 0 13 10q0 12 -13 12h-45v388h62q12 0 12 10 q0 12 -12 12h-62v74q0 10 -12 10q-10 0 -10 -10v-76h-797v389h1198v-35q0 -10 10 -10q12 0 13 10v35h57q12 0 12 10q0 12 -12 13h-57v383h82q12 0 12 10q0 12 -12 12h-82v62q0 10 -13 10q-10 0 -10 -10v-64h-289h-8h-1310v60q0 10 -13 10q-10 0 -10 -10v-60h-133 q-10 0 -10 -12zM150 18v2016h1310h8h289v-385h-1198v47q0 10 -12 10q-10 0 -10 -10v-47h-256q-10 0 -11 -13q0 -10 11 -10h256v-387h-56q-10 0 -10 -12q0 -10 10 -10h56v-388h-43q-10 0 -11 -12q0 -10 11 -10h43v-789h-387zM559 829v390h797v-390h-797z" />
<glyph unicode="G" horiz-adv-x="1908" d="M29 2050q0 -10 10 -10h96v-2042h-88q-10 0 -10 -10q0 -12 10 -13h88v-20q0 -10 10 -10q12 0 13 10v22h1620v-47q0 -10 10 -10q12 0 12 10v47l49 -2q10 0 11 13q0 12 -11 12h-49v1219h70q10 0 10 10q0 12 -10 12h-70v45q0 10 -12 10q-10 0 -10 -10v-47h-772v51 q0 10 -13 10q-10 0 -10 -10v-51h-39q-10 0 -10 -12q0 -10 10 -10h39v-383h-63q-10 0 -11 -13q0 -10 11 -10h63v-49q0 -10 10 -10q12 0 13 10v51h354v-389h-2h-778v1208h788v-63q0 -10 10 -10q12 0 13 10v63h49q10 0 10 10q0 12 -10 13h-49v387h86q10 0 10 10q0 12 -10 12 h-86v45q0 10 -13 11q-10 0 -10 -11v-47h-1210v39q0 10 -13 10q-10 0 -10 -10v-39h-96q-10 0 -10 -12zM158 0v2042h1210v-389h-788v39q0 10 -13 10q-10 0 -10 -10v-39h-63q-10 0 -11 -13q0 -10 11 -10h63v-1206h-14q-10 0 -11 -12q0 -10 11 -11h14v-73q0 -10 10 -11 q12 0 13 11v75h778h2v-67q0 -10 10 -10q12 0 12 10v477h66q10 0 10 10q0 12 -10 13h-66v57q0 10 -12 10q-10 0 -10 -10v-59h-354v385h772v-1221z" />
<glyph unicode="H" horiz-adv-x="1974" d="M68 6q0 -10 10 -10h88v-70q0 -10 10 -10q12 0 12 10v72h392v-47q0 -10 10 -10q12 0 12 10v47l115 -2q12 0 12 12t-12 12h-115v793h793v-803h-56q-10 0 -10 -10q0 -12 10 -12h56v-13q0 -10 10 -10q12 0 12 10v15h387v-35q0 -10 11 -10q12 0 12 10v35h69q12 0 13 10 q0 12 -13 12h-69v2022h69q12 0 13 10q0 12 -13 12h-69v37q0 10 -12 10q-10 0 -11 -10v-39h-493q-10 0 -11 -12q0 -10 11 -10h84v-801h-805v803h131q12 0 12 10q0 12 -12 12h-131v45q0 10 -12 10q-10 0 -11 -10v-47h-374v39q0 10 -13 10q-10 0 -10 -10v-39h-76q-10 0 -10 -12 q0 -10 10 -10h76v-762q-4 -4 -4 -8v-1244h-88q-10 0 -10 -12zM188 20v1209q4 4 5 8v797h374v-842q0 -10 11 -10q12 0 12 10v18h805v-34q0 -10 10 -11q12 0 12 11v34h78q12 0 12 11q0 12 -12 12h-78v801h387v-2024h-387v803h49q12 0 13 10q0 12 -13 13h-49v20q0 10 -12 10 q-10 0 -10 -10v-22h-793v38q0 10 -12 11q-10 0 -10 -11v-38h-35q-10 0 -10 -13q0 -10 10 -10h35v-793z" />
<glyph unicode="I" horiz-adv-x="808" d="M72 14q0 -10 10 -10h80v-65q0 -10 10 -11q12 0 12 11v67h371v-47q0 -10 10 -10q12 0 13 10v47l61 -2q12 0 12 12t-12 13h-61v2009h147q12 0 12 10q0 12 -12 12h-147v41q0 10 -13 10q-10 0 -10 -10v-43h-371v39q0 10 -12 10q-10 0 -10 -10v-39h-76q-10 0 -10 -12 q0 -10 10 -10h76v-2009h-80q-10 0 -10 -13zM184 29v2009h371v-2011z" />
<glyph unicode="J" horiz-adv-x="1976" d="M82 14q0 -10 10 -10h76v-33q0 -10 10 -10q12 0 12 10v35h1592v-6v-78q0 -10 10 -10q12 0 12 10v70q4 4 4 8v6h74q12 0 12 10q0 12 -12 13h-74l9 2015l59 2q10 0 10 10q0 12 -12 10h-57v27q0 10 -13 10q-10 0 -10 -10v-27l-403 -6v33q0 10 -13 10q-10 0 -10 -10v-33 l-59 -2q-10 0 -11 -12q0 -10 13 -8h57v-1610h-760l4 385h86q12 -2 13 8q0 12 -11 13l-88 2v49q0 10 -12 10q-10 0 -10 -10v-49l-400 6v30q0 10 -12 11q-10 0 -10 -11v-30h-49q-12 2 -13 -11q0 -10 11 -10l51 -2v-792h-76q-10 0 -10 -13zM190 27v792l400 -6l-4 -385h-68 q-10 0 -10 -12q0 -10 10 -10h68v-115q0 -10 10 -10q12 0 12 10v117h760v-121q0 -10 10 -11q12 0 13 11v121h16q12 0 12 10q0 12 -12 12h-16v1608l403 6l-8 -2017h-1596z" />
<glyph unicode="K" horiz-adv-x="1976" d="M31 10q0 -10 10 -10h149v-57q0 -10 11 -11q12 0 12 11v59h375v-6q0 -10 10 -10q12 0 12 10v6l95 -2q12 0 12 12t-12 13h-95v784h805v-791h-55q-10 0 -10 -12q0 -10 10 -10h55v-45q0 -10 10 -10q12 0 13 10v47h395v-14q0 -10 10 -11q12 0 12 11v14h78q12 0 13 10 q0 12 -13 12h-78v777q4 -2 10.5 0t6.5 10v504q0 10 -12 10q-10 0 -11 -10v-51h-395v786h115q12 0 12 10q0 12 -12 12h-115v17q0 10 -12 10q-10 0 -10 -10v-19h-396v27q0 10 -12 10q-10 0 -10 -10v-27h-35q-10 0 -10 -12q0 -10 10 -10h35v-821l-396 -2v821h91q12 0 12 10 q0 12 -12 12h-91v37q0 10 -12 10q-10 0 -10 -10v-39h-383v43q0 10 -12 11q-10 0 -11 -11v-43h-96q-10 0 -10 -12q0 -10 10 -10h96v-2017h-149q-10 0 -10 -13zM213 25v2017h383v-821l-92 -2q-10 0 -10 -13q0 -10 10 -8h92v-59q0 -10 10 -11q12 0 12 11v59l396 2v-4 q0 -10 10 -10q12 0 12 10v16v834h396v-786h-72q-10 0 -10 -13q0 -10 10 -10h72v-45q0 -10 10 -10q12 0 12 10v47h395v-385q-4 2 -10 0t-6 -10v-826h-395v791h82q12 0 12 10q0 12 -12 12h-82v21q0 10 -13 10q-10 0 -10 -10v-23h-805v35q0 10 -12 10q-10 0 -10 -10v-35h-35 q-10 0 -10 -12q0 -10 10 -10h35v-784z" />
<glyph unicode="L" horiz-adv-x="1808" d="M-55 10q0 -10 10 -10h84v-57q0 -10 10 -11q12 0 12 11v59h1588v-145q0 -10 10 -11q12 0 12 11v145l66 -2q12 0 12 12t-12 13h-66l4 383h176q12 0 13 10q0 12 -13 12h-176v70q0 10 -12 10q-10 0 -10 -10v-72h-1178v1622h111q12 0 12 10q0 12 -12 13h-111v36q0 10 -12 11 q-10 0 -10 -11v-38h-392v14q0 10 -12 10q-10 0 -10 -10v-14h-59q-10 0 -11 -13q0 -10 11 -10h59v-2025h-84q-10 0 -10 -13zM61 25v2025h392v-1622h-80q-10 0 -11 -12q0 -10 11 -10h80v-17q0 -10 10 -10q12 0 12 10v19h1178l-4 -385z" />
<glyph unicode="M" horiz-adv-x="2387" d="M80 2046q0 -10 10 -10h82v-2018h-57q-10 0 -11 -12q0 -10 11 -10h57v-43q0 -10 10 -10q12 0 13 10v45h362v-78q0 -10 10 -10q12 0 13 10v78l24 -2q10 -2 10 10q0 14 -10 14h-24v1616h407v-1421h-33q-10 0 -10 -12q0 -10 10 -10h33v-11q0 -10 10 -10q12 0 13 10v13h387 v-13q0 -10 10 -10q12 0 12 10v13h88q10 0 11 10q0 12 -11 12h-88v1423h355v-1626h-93q-10 0 -10 -12q0 -10 10 -10h93v-51q0 -10 10 -11q12 0 12 11v53h412v-84q0 -10 10 -10q12 0 12 10v84h68q10 0 10 10q0 12 -10 12h-68l8 2022h48q10 0 10 10q0 12 -10 12h-48v25 q0 10 -12 10q-10 0 -10 -10v-27h-2021v35q0 10 -13 10q-10 0 -10 -10v-35h-82q-10 0 -10 -12zM195 20v2018h2021l-8 -2024h-412v1626h64q10 0 10 11q0 12 -10 12h-64v16q0 10 -12 11q-10 0 -10 -11v-18h-355v22q0 10 -12 11q-10 0 -10 -11v-22h-45q-10 0 -11 -12 q0 -10 11 -11h45v-1423h-387v1421h90q10 0 10 11q0 12 -10 12h-90v8q0 10 -13 10q-10 0 -10 -10v-10h-407v37q0 10 -13 10q-10 0 -10 -10v-37h-41q-10 0 -10 -12q0 -10 10 -11h41v-1616z" />
<glyph unicode="N" horiz-adv-x="1949" d="M102 -4q0 -12 11 -12h37v-25q0 -10 10 -10q12 0 12 10v27h367v-45q0 -10 10 -11q12 0 12 11v45l47 -2q10 0 10 12t-10 12h-47v1628h813v-1634h-24q-10 0 -11 -10q0 -12 11 -12h24v-33q0 -10 10 -10q12 0 13 10v35h387v-35q0 -10 10 -10q12 0 12 10v35h31q10 0 10 12 q0 10 -10 10h-31v2034h13q10 0 10 10q0 12 -10 12h-13v43q0 10 -12 11q-10 0 -10 -11v-45h-1612v25q0 10 -12 10q-10 0 -10 -10v-25h-29q-10 0 -10 -12q0 -10 10 -10h29v-2030h-37q-10 0 -11 -10zM172 8v2030h1612v-2036h-387v1636q8 8 0 17v35q0 10 -13 10q-10 0 -10 -10 v-33h-813v84q0 10 -12 10q-10 0 -10 -10v-84h-25q-10 0 -10 -12q0 -10 10 -11h25v-1628z" />
<glyph unicode="O" horiz-adv-x="1945" d="M70 6q0 -10 10 -10h98v-78q0 -10 10 -10q12 0 13 10v80l1591 -2q10 0 10 12t-10 12h-1591v2026h1607v-2079q0 -10 11 -10q12 0 12 10v2079h35q10 0 10 10q0 12 -10 12h-35v46q0 10 -12 10q-10 0 -11 -10v-48h-1607v23q0 10 -13 10q-10 0 -10 -10v-23h-61q-10 0 -11 -12 q0 -10 11 -10h61v-2026h-98q-10 0 -10 -12zM528 1661q0 -10 11 -10h49v-1223h-33q-10 0 -10 -12q0 -10 10 -10h33v-41q0 -10 10 -11q12 0 12 11v43h797v-35q0 -10 10 -11q12 0 13 11v35l47 -2q10 0 10 12t-10 12h-47v1223h63q10 0 10 10q0 12 -10 12h-63v8q0 10 -13 11 q-10 0 -10 -11v-10h-797v51q0 10 -12 11q-10 0 -10 -11v-51h-49q-10 0 -11 -12zM610 430v1223h797v-1225z" />
<glyph unicode="P" horiz-adv-x="1538" d="M29 2046q0 -10 12 -10h119v-2009h-58q-12 2 -12 -11q0 -10 12 -10l58 -2v-61q0 -10 10 -11q12 0 12 11v61l375 -6v-68q0 -10 10 -10q12 0 13 10v68h129q10 -2 10 8q0 12 -10 12l-129 2v308q4 4 4 8v469h800v-43q0 -10 11 -10q12 0 12 10v43h59q10 0 11 10q0 12 -11 12 h-59v1211h92q10 0 10 10q0 12 -10 12h-92v49q0 10 -12 11q-10 0 -11 -11v-51h-1202v35q0 10 -12 10q-10 0 -10 -10v-35h-119q-12 0 -12 -12zM182 27v2011h1202v-1213h-800v47q0 10 -13 11q-10 0 -10 -11v-47h-37q-12 0 -12 -12q0 -10 12 -10h37v-455q-4 -4 -4 -8v-320z M483 1243q0 -10 13 -10h61v-33q0 -10 10 -10q13 0 13 10v35h399v-47q0 -10 10 -10q12 0 12 10v47h113q10 0 10 10q0 12 -10 12h-113l-6 388h107q10 0 10 10q0 12 -10 12h-107l-2 70q0 10 -12 10q-10 0 -10 -10l2 -72h-393v43q0 10 -13 10q-10 0 -10 -10v-43h-53 q-12 0 -12 -12q0 -10 12 -11h53v-387h-61q-12 0 -13 -12zM580 1255v390h393l6 -390h-399z" />
<glyph unicode="Q" horiz-adv-x="2058" d="M43 0q0 -12 10 -10h103v-72q0 -10 10 -10q12 0 12 10v72l789 6v-338h-136q-10 0 -10 -10q0 -12 10 -13h136v-86q0 -10 10 -10q12 0 12 10v89h387v-72q0 -10 10 -10q12 0 13 10v72h129q10 0 10 12q0 10 -10 10h-129v346h387v-39q0 -10 10 -10q12 0 12 10v39h187 q10 0 10 10q0 12 -10 13h-187v2017h35q10 0 10 10q0 12 -10 12h-35v46q0 10 -12 10q-10 0 -10 -10v-48h-1608v23q0 10 -12 10q-10 0 -10 -10v-23h-62q-10 0 -10 -12q0 -10 10 -10h62v-2032l-103 -2q-10 0 -10 -10zM178 12v2034h1608v-2019h-387v39q0 10 -13 10 q-10 0 -10 -10v-39h-110q-10 0 -11 -13q0 -10 11 -10h110v-346h-387v338l55 2q10 0 11 10q0 12 -11 10h-55v64q0 10 -12 10q-10 0 -10 -10v-64zM506 1661q0 -10 10 -10h49v-1223h-33q-10 0 -10 -12q0 -10 10 -10h33v-41q0 -10 10 -11q12 0 13 11v43h796v-35q0 -10 11 -11 q12 0 12 11v35l47 -2q10 0 10 12t-10 12h-47v1223h63q10 0 11 10q0 12 -11 12h-63v8q0 10 -12 11q-10 0 -11 -11v-10h-796v51q0 10 -13 11q-10 0 -10 -11v-51h-49q-10 0 -10 -12zM588 430v1223h796v-1225z" />
<glyph unicode="R" horiz-adv-x="1923" d="M37 2046q0 -10 10 -10h121v-2009h-59q-10 2 -11 -11q0 -10 11 -10l59 -2v-61q0 -10 10 -11q12 0 12 11v61l375 -6v-68q0 -10 10 -10q12 0 13 10v68h127q12 -2 12 8q0 12 -12 12l-127 2v308q4 4 4 8v469h788v-787h-71q-10 0 -11 -12q0 -10 11 -10h71v-12q0 -10 11 -11 q12 0 12 11v14h395q2 -10 10 -10t13 10h45q12 0 12 10q0 12 -12 12h-45v1190h53q12 0 12 11q0 12 -12 12h-53v53q0 10 -13 10q-10 0 -10 -10v-55h-395v807h102q12 0 13 10q0 12 -13 12h-102v54q0 10 -12 10q-10 0 -11 -10v-56h-1190v35q0 10 -12 10q-10 0 -10 -10v-35h-121 q-10 0 -10 -12zM190 27v2011h1190v-807h-71q-10 0 -11 -12q0 -10 11 -11h71v-28q0 -10 11 -11q12 0 12 11v30h395v-1192h-395v787h70q12 0 12 10q0 12 -12 12h-70v50q0 10 -12 10q-10 0 -11 -10v-52h-788v47q0 10 -12 11q-10 0 -11 -11v-47h-39q-10 0 -10 -12q0 -10 10 -10 h39v-455q-4 -4 -4 -8v-320zM492 1243q0 -10 10 -10h63v-33q0 -10 10 -10q13 0 13 10v35h399v-47q0 -10 10 -10q12 0 13 10v47h110q12 0 13 10q0 12 -13 12h-112l-4 388h104q12 0 12 10q0 12 -12 12h-107v70q0 10 -12 10q-10 0 -10 -10v-72h-391v43q0 10 -13 10 q-10 0 -10 -10v-43h-55q-10 0 -10 -12q0 -10 10 -11h55v-387h-63q-10 0 -10 -12zM588 1255v390h393l4 -390h-397z" />
<glyph unicode="S" horiz-adv-x="1685" d="M-156 0q0 -12 11 -12h168v-51q0 -10 10 -11q12 0 12 11v53h1587h6v-94q0 -10 11 -11q12 0 12 11v1323h170q10 0 10 10q0 12 -10 12h-170v47q0 10 -12 10q-10 0 -11 -10v-49h-974v387h768v-57q0 -10 10 -10q12 0 12 10v57h39q10 0 10 10q0 12 -10 13h-39v383h96 q10 0 11 10q0 12 -11 12h-96v72q0 10 -12 10q-10 0 -10 -10v-74h-1184v49q0 10 -12 10q-10 0 -11 -10v-49h-63q-10 0 -10 -12q0 -10 10 -10h63v-791q-10 0 -10 -10v-400h-37q-10 0 -10 -12q0 -10 10 -10h37v-35q0 -10 10 -10q12 0 13 10v37h993v-389h-1186v39q0 10 -12 10 q-10 0 -10 -10v-39h-54q-10 0 -10 -12q0 -10 10 -11h54v-387h-168q-10 0 -11 -10zM45 10v389h1186v-73q0 -10 10 -11q12 0 12 11v483h76q10 0 10 10q0 12 -10 12h-76v29q0 10 -12 10q-10 0 -10 -10v-31h-993v373q10 0 10 10v820h1184v-385h-768v63q0 10 -13 10 q-10 0 -10 -10v-63h-39q-10 0 -10 -13q0 -10 10 -10h39v-385h-106q-10 0 -11 -12q0 -10 11 -10h106q2 -8 10 -9q8 0 11 11h976v-1209h-6h-1587z" />
<glyph unicode="T" horiz-adv-x="2222" d="M33 2038q0 -10 10 -10h53v-371h-22q-10 0 -11 -12q0 -10 11 -11h22v-131q0 -10 10 -10q12 0 13 10v133h764v-1609h-109q-10 0 -10 -13q0 -10 10 -10h109v-12q0 -10 10 -10q12 0 12 10v14h387v-45q0 -10 11 -10q12 0 12 10v45l106 -2q12 0 13 12q0 12 -13 13h-106v1611 h801v-159q0 -10 10 -11q12 0 12 11v159h39q12 0 12 11q0 12 -12 12h-39v367q8 2 8 10t-8 10v31q0 10 -12 10q-10 0 -10 -10v-31h-1997v43q0 10 -13 10q-10 0 -10 -10v-43h-53q-10 0 -10 -12zM119 1657v373h1997v-369h-801v6q0 10 -12 10q-10 0 -11 -10v-6h-78q-10 0 -10 -12 q0 -10 10 -11h78v-1611l-387 2v1607h51q12 0 13 11q0 12 -13 12h-51v16q0 10 -12 11q-10 0 -10 -11v-18h-764z" />
<glyph unicode="U" horiz-adv-x="1955" d="M104 2046q0 -10 13 -10h35v-2030h-27q-12 0 -12 -10q0 -12 12 -12h27v-23q0 -10 10 -10q12 0 12 10v25h1612v-45q0 -10 10 -11q12 0 12 11v45l15 -2q10 0 10 12t-10 12h-15v2034h33q10 0 10 10q0 12 -10 12h-33v33q0 10 -12 10q-10 0 -10 -10v-35h-387v35q0 10 -13 10 q-10 0 -10 -10v-35h-22q-12 0 -13 -12q0 -10 13 -10h22v-1632h-813v1630h49q10 0 11 10q0 12 -11 12h-49v43q0 10 -12 11q-10 0 -10 -11v-45h-367v27q0 10 -12 10q-10 0 -10 -10v-27h-35q-12 0 -13 -12zM174 8v2030h367v-1630h-23q-12 0 -12 -13q0 -10 12 -10h23v-82 q0 -10 10 -10q12 0 12 10v84h813v-33q0 -10 10 -10q12 0 13 10v35q12 8 0 17v1636h387v-2036z" />
<glyph unicode="V" horiz-adv-x="1955" d="M90 395q0 -10 12 -10h64v-55q0 -10 10 -11q12 0 12 11v57l367 -2v-379h-47q-12 0 -12 -10q0 -12 12 -12h47v-50q0 -10 10 -10q12 0 13 10v52h1222v-45q0 -10 10 -11q12 0 13 11v45h14q10 0 10 12q0 10 -10 10h-14v2034h32q10 0 11 10q0 12 -11 12h-32v33q0 10 -13 10 q-10 0 -10 -10v-35h-387v35q0 10 -12 10q-10 0 -10 -10v-35h-23q-12 0 -12 -12q0 -10 12 -10h23v-1632h-813v1630h49q10 0 10 10q0 12 -10 12h-49v43q0 10 -13 11q-10 0 -10 -11v-45h-367v27q0 10 -12 10q-10 0 -10 -10v-27h-35q-12 0 -12 -12q0 -10 12 -10h35v-1628h-64 q-12 0 -12 -13zM188 410v1628h367v-1630zM578 6v381h813v-33q0 -10 10 -10q12 0 12 10v35q12 8 0 17v1636h387v-2036h-1222z" />
<glyph unicode="W" horiz-adv-x="2392" d="M82 -35q0 -12 10 -12h82v-33q0 -10 10 -10q12 0 13 10v35h2021v-27q0 -10 10 -10q12 0 13 10v27l47 -2q12 0 12 12t-12 12h-47l-9 2022h68q12 0 12 10q0 12 -12 12h-68v82q0 10 -12 11q-10 0 -10 -11v-84h-412v54q0 10 -12 10q-10 0 -10 -10v-54h-93q-10 0 -10 -12 q0 -10 10 -10h93v-1624h-355v1220h88q12 0 13 11q0 12 -13 12h-88v10q0 10 -12 10q-10 0 -10 -10v-12h-387v12q0 10 -13 10q-10 0 -10 -10v-12h-33q-10 0 -10 -12q0 -10 10 -11h33v-1214h-407v1618h24q12 0 12 10q0 12 -12 12h-24v76q0 10 -13 10q-10 0 -10 -10v-78h-362v45 q0 10 -13 11q-10 0 -10 -11v-45h-57q-10 0 -11 -12q0 -10 11 -10h57v-2018h-82q-10 0 -10 -10zM197 -25v2020h362v-1618h-41q-10 0 -10 -12q0 -10 10 -11h41v-35q0 -10 10 -10q12 0 13 10v37h407v-10q0 -10 10 -10q12 0 13 10v10h90q12 0 12 11q0 12 -12 12h-90v1214h387 v-1220h-45q-10 0 -11 -13q0 -10 11 -10h45v-20q0 -10 10 -11q12 0 12 11v22h355v-18q0 -10 10 -10q12 0 12 10v18h64q12 0 12 10q0 12 -12 13h-64v1624h412l8 -2024h-2021z" />
<glyph unicode="X" horiz-adv-x="1951" d="M94 10q0 -10 12 -10h35v-139q0 -10 11 -11q12 0 12 11v141h379v-65q0 -10 10 -11q12 0 12 11v65l66 -2q10 0 10 12t-10 13h-66v788h776v-799h-55q-12 0 -12 -12q0 -10 12 -10h55v-31q0 -10 11 -10q12 0 12 10v33h383v-41q0 -10 10 -10q12 0 12 10v41h78q10 0 11 10 q0 12 -11 12h-78v1198h39q10 0 11 11q0 12 -11 12h-39v33q0 10 -12 10q-10 0 -10 -10v-35h-166l4 803h92q10 0 11 10q0 12 -11 12h-92v39q0 10 -12 10q-10 0 -10 -10v-41h-387v39q0 10 -13 10q-10 0 -10 -10v-39h-49q-12 0 -12 -12q0 -10 12 -10h49v-805h-387v794h59 q10 -2 11 9q0 12 -11 12l-59 2q-4 8 -12 8q-6 0 -11 -8l-399 6v35q0 10 -12 10q-10 0 -10 -10v-35h-33q-12 2 -13 -10q0 -10 13 -10l33 -2v-789h-158v19q0 10 -12 10q-10 0 -11 -10v-19h-26q-12 0 -13 -12q0 -10 13 -10h26v-1198h-35q-12 0 -12 -13zM164 25v1198h158v-64 q0 -10 10 -10q12 0 12 10v64h33q10 0 10 10q0 12 -10 12h-33v787l399 -7v-794h-24q-12 0 -12 -12q0 -10 12 -11h24v-30q0 -10 11 -11q12 0 12 11v32h387v-20q0 -10 10 -10q12 0 13 10v20h38q10 0 11 11q0 12 -11 12h-38v805h387l-4 -803h-25q-12 0 -12 -12q0 -10 12 -11h25 v-34q0 -10 10 -11q12 0 12 11v36h166v-1200h-383v799h49q10 0 10 10q0 12 -10 13h-49v32q0 10 -12 11q-10 0 -11 -11v-34h-776v40q0 10 -12 11q-10 0 -10 -11v-40h-72q-12 0 -12 -13q0 -10 12 -10h72v-788z" />
<glyph unicode="Y" horiz-adv-x="1892" d="M63 834q0 -10 11 -11h69v-20q0 -10 11 -10q12 0 12 10v22h579v-815h-36q-10 0 -11 -10q0 -12 11 -12h36v-19q0 -10 11 -10q12 0 12 10v21h399v-41q0 -10 11 -10q12 0 12 10v41l76 -2q12 0 12 12t-12 12h-76v801h567v-33q0 -10 10 -10q12 0 13 10v33h37q12 0 12 10 q0 12 -12 13h-37v1194h37q12 0 12 10q0 12 -12 12h-37v16q0 10 -13 11q-10 0 -10 -11v-18h-371v23q0 10 -12 10q-10 0 -10 -10v-23h-100q-10 0 -11 -12q0 -10 11 -10h100v-781h-793v778h76q12 0 12 11q0 12 -12 12h-76v16q0 10 -12 11q-10 0 -10 -11v-18h-383v47 q0 10 -12 10q-10 0 -11 -10v-47h-37q-10 0 -10 -12q0 -10 10 -11h37v-1177h-69q-10 0 -11 -12zM166 846v1179h383v-778h-70q-10 0 -10 -12q0 -10 10 -10h885v-43q0 -10 10 -11q12 0 12 11v45h48q12 0 12 10q0 12 -12 12h-48v781h371v-1196h-567v34q0 10 -12 11 q-10 0 -11 -11v-34h-45q-10 0 -10 -13q0 -10 10 -10h45v-801l-399 2v813h37q12 0 12 11q0 12 -12 12h-37v72q0 10 -12 10q-10 0 -11 -10v-74h-579z" />
<glyph unicode="Z" horiz-adv-x="1929" d="M88 6q0 -10 10 -10h39v-23q0 -10 10 -10q13 0 13 10v25h1595v-78q0 -10 10 -10q12 0 13 10v78h53q10 0 10 10q0 12 -10 12h-53v383h49q10 0 10 11q0 12 -10 12h-49v55q0 10 -13 11q-10 0 -10 -11v-57h-1171q-14 0 -11 -16h-24v426h1206v-33q0 -10 10 -10q12 0 13 10v33 h22q10 0 10 10q0 12 -10 12h-22v1178h49q10 0 10 10q0 12 -10 12h-49v21q0 10 -13 10q-10 0 -10 -10v-23h-1202v27q0 10 -12 10q-10 0 -11 -10v-27h-51q-10 0 -10 -12q0 -10 10 -10h51v-371h-47q-10 0 -10 -12q0 -10 10 -11h47v-26q0 -10 11 -10q12 0 12 10v28h805v-413 h-1198v43q0 10 -13 10q-10 0 -10 -10v-43h-4q-10 0 -10 -13q0 -10 10 -10h4v-1186h-39q-10 0 -10 -12zM160 18v1188h1198v-16q0 -10 10 -10q12 0 12 10v16h54q10 0 10 11q0 12 -10 12h-54v411q10 2 11 11q0 8 -11 10v27q0 10 -12 10q-10 0 -10 -10v-27h-805v373h1202v-1180 h-1206v10q0 10 -12 10q-10 0 -11 -10v-10h-18q-10 0 -10 -12q0 -10 10 -11h18v-423h-73q-10 0 -11 -13q0 -10 11 -10h73v-23q0 -10 11 -10q12 0 12 10v25h53q14 0 10 16h1143v-385h-1595z" />
<glyph unicode="a" horiz-adv-x="1986" d="M68 2050q0 -10 10 -10h104l-8 -2026h-72q-10 0 -10 -12q0 -10 10 -10h72v-115q0 -10 10 -10q12 0 13 10v117h383v-72q0 -10 10 -10q12 0 12 10v72l82 -2q12 0 12 12t-12 12h-82v801h801v-794h-47q-10 0 -10 -13q0 -10 10 -10h47v-49q0 -10 10 -10q12 0 12 10v51h359v-80 q0 -10 10 -10q12 0 12 10v60q8 0 9 10v10h94q12 0 12 10q0 12 -12 13h-94v2017h94q12 0 12 10q0 12 -12 12h-94v37q0 10 -13 10q-10 0 -10 -10v-39h-1587v64q0 10 -12 10q-10 0 -11 -10v-64h-104q-10 0 -10 -12zM197 16l8 2026h1587v-2019h-367v794h111q12 0 12 10 q0 12 -12 13h-111v32q0 10 -12 11q-10 0 -10 -11v-34h-801v51q0 10 -12 10q-10 0 -10 -10v-51h-56q-10 0 -10 -13q0 -10 10 -10h56v-801zM457 1649q0 -10 10 -11h100v-407h-59q-10 0 -10 -12q0 -10 10 -11h59q0 -10 11 -10q12 0 12 10h817v-49q0 -10 10 -10q12 0 13 10v51 h65q12 0 12 11q0 12 -12 12h-65v407h53q12 0 12 11q0 12 -12 12h-53v41q0 10 -13 10q-10 0 -10 -10v-43h-817v59q0 10 -12 11q-10 0 -11 -11v-59h-100q-10 0 -10 -12zM590 1231v409h817v-409h-817z" />
<glyph unicode="b" horiz-adv-x="1947" d="M63 2q0 -10 11 -10h80v-62q0 -10 10 -10q12 0 12 10v64h1596v-68q0 -10 10 -10q12 0 12 10v68l78 -2q12 0 12 12t-12 12h-78v1194h4q12 0 12 11q0 12 -12 12h-4v57q0 10 -12 10q-10 0 -10 -10v-59h-379v366q0 4 -4 9v452h110q12 0 12 10q0 12 -12 13h-110v16q0 10 -13 10 q-10 0 -10 -10v-18h-1190v26q0 10 -12 11q-10 0 -10 -11v-26h-43q-10 0 -11 -13q0 -10 11 -10h43v-2042h-80q-10 0 -11 -12zM176 16v2042h1190v-485q0 -4 4 -8v-334h-72q-10 0 -10 -12q0 -10 10 -11h72v-16q0 -10 10 -10q12 0 13 10v18h379v-1196zM481 1661q0 -10 11 -10h71 v-412h-31q-10 2 -10 -10q0 -10 10 -10l31 -2v-46q0 -10 10 -10q12 0 13 10v46l383 -3v-55q0 -10 10 -10q12 0 12 10v49l4 6h45q12 -2 13 9q-1 12 -13 12l-45 2v416h78q12 0 12 10q0 12 -12 12h-78v17q0 10 -12 10q-10 0 -10 -10v-19h-387v39q0 10 -13 10q-10 0 -10 -10v-39 h-71q-10 0 -11 -12zM489 825q0 -10 11 -10h55v-391h-27q-10 0 -10 -12q0 -10 10 -11h27v-41q0 -10 10 -10q13 0 13 10v43h804v-108q0 -10 11 -10q12 0 12 10v108h53q12 0 12 11q0 12 -12 12h-53v391h90q12 0 12 10q0 12 -12 13h-90v69q0 10 -12 11q-10 0 -11 -11v-71h-804 v43q0 10 -13 10q-10 0 -10 -10v-43h-55q-10 0 -11 -13zM578 424v391h804v-391h-804zM586 1239v414h387v-416z" />
<glyph unicode="c" horiz-adv-x="1779" d="M-63 2046q0 -10 12 -10h254v-2016q0 -8 4 -8q0 -16 12 -16h1593v-119q0 -10 11 -10q12 0 12 10v127q4 4 4 8v361q4 4 4 8v233q0 10 -12 11q-10 0 -10 -11v-188l-2 -2h-7h-1185v2v1214h796v-149q0 -10 11 -10q12 0 12 10v149h2q10 0 10 11q0 12 -10 12h-2v375h10 q10 0 10 10q0 12 -10 12h-10v94q0 10 -12 11q-10 0 -11 -11v-96h-1474q-12 0 -12 -12zM225 20v2018h1198v-377h-796v35q0 10 -13 10q-10 0 -10 -10v-35h-45q-12 0 -12 -12q0 -10 12 -11h45v-1212q0 -8 4 -8q0 -16 13 -17h1191h3q0 2 2 2v-354q-4 -4 -5 -8v-23z" />
<glyph unicode="d" horiz-adv-x="1970" d="M55 6q0 -10 11 -10h100v-78q0 -10 10 -10q12 0 12 10v80l1588 -2q0 -8 10 -8h14v-107q0 -10 10 -10q12 0 13 10v109h82q10 0 10 10q0 12 -10 12h-82v1637h16q10 0 10 10q0 12 -10 12h-16v33q0 10 -13 10q-10 0 -10 -10v-35h-313q0 4 -8 4h-62v10q0 10 -8 11v352h8 q10 0 10 10q0 12 -10 12h-8v37q0 10 -12 11q-10 0 -11 -11v-39h-1198v23q0 10 -12 10q-10 0 -10 -10v-23h-68q-10 0 -10 -12q0 -10 10 -10h68v-2026h-100q-10 0 -11 -12zM188 18v2028h1198v-373h-788v51q0 10 -12 11q-10 0 -11 -11v-51h-51q-10 0 -10 -12q0 -10 10 -10h51 v-1223h-34q-10 0 -11 -12q0 -10 11 -10h34v-41q0 -10 11 -11q12 0 12 11v43h797v-35q0 -10 10 -11q12 0 12 11v35h45q10 0 11 10q0 12 -11 12h-45v1219h383v-1639h-12q0 10 -10 10zM598 430v1223h797v-1225z" />
<glyph unicode="e" horiz-adv-x="1830" d="M-49 8q0 -12 10 -12h295h29h1566v-119q0 -10 11 -10q12 0 12 10v127q4 4 4 8v361q4 4 4 8v233q0 10 -12 11q-10 0 -10 -11v-188q-2 0 -2 -2h-3h-6h-1151h-32v393h796v-104q0 -10 11 -11q12 0 12 11v514q8 2 8 10t-8 10v109q0 10 -12 10q-10 0 -11 -10v-109h-796v393h1001 v-149q0 -10 10 -10q12 0 13 10v149q10 0 10 11q0 12 -10 12v375h8q10 0 10 10q0 12 -10 12h-8v94q0 10 -13 11q-10 0 -10 -11v-96h-1681q-10 0 -11 -12q0 -10 11 -10h256v-2016h-281q-10 0 -10 -12zM264 18v2v2018h1403v-377h-1001v51q0 10 -13 10q-10 0 -10 -10v-51h-47 q-10 0 -10 -12q0 -10 10 -11h47v-391h-55q-10 0 -10 -12q0 -10 10 -10h55v-387h-51q-10 0 -10 -13q0 -10 10 -10h51v-391h-84q-10 0 -10 -12q0 -10 10 -11h84v-61q0 -10 10 -10q12 0 13 10v63h32h1151h6v-354q-4 -2 -4 -8v-23h-1566h-21zM666 838v389h796v-389h-796z" />
<glyph unicode="f" horiz-adv-x="1857" d="M-16 2042q0 -10 10 -10h133v-2014h-117q-10 0 -10 -12q0 -10 10 -10h117v-74q0 -10 10 -10q12 0 13 10v76h387v-55q0 -10 10 -11q12 0 12 11v55l213 -2q12 0 12 12t-12 12h-213v789h797v-76q0 -10 10 -10q12 0 12 10v76h45q12 0 13 10q0 12 -13 12h-45v388h62q12 0 12 10 q0 12 -12 12h-62v74q0 10 -12 10q-10 0 -10 -10v-76h-797v389h1198v-35q0 -10 10 -10q12 0 13 10v35h57q12 0 12 10q0 12 -12 13h-57v383h82q12 0 12 10q0 12 -12 12h-82v62q0 10 -13 10q-10 0 -10 -10v-64h-289h-8h-1310v60q0 10 -13 10q-10 0 -10 -10v-60h-133 q-10 0 -10 -12zM150 18v2016h1310h8h289v-385h-1198v47q0 10 -12 10q-10 0 -10 -10v-47h-256q-10 0 -11 -13q0 -10 11 -10h256v-387h-56q-10 0 -10 -12q0 -10 10 -10h56v-388h-43q-10 0 -11 -12q0 -10 11 -10h43v-789h-387zM559 829v390h797v-390h-797z" />
<glyph unicode="g" horiz-adv-x="1908" d="M29 2050q0 -10 10 -10h96v-2042h-88q-10 0 -10 -10q0 -12 10 -13h88v-20q0 -10 10 -10q12 0 13 10v22h1620v-47q0 -10 10 -10q12 0 12 10v47l49 -2q10 0 11 13q0 12 -11 12h-49v1219h70q10 0 10 10q0 12 -10 12h-70v45q0 10 -12 10q-10 0 -10 -10v-47h-772v51 q0 10 -13 10q-10 0 -10 -10v-51h-39q-10 0 -10 -12q0 -10 10 -10h39v-383h-63q-10 0 -11 -13q0 -10 11 -10h63v-49q0 -10 10 -10q12 0 13 10v51h354v-389h-2h-778v1208h788v-63q0 -10 10 -10q12 0 13 10v63h49q10 0 10 10q0 12 -10 13h-49v387h86q10 0 10 10q0 12 -10 12 h-86v45q0 10 -13 11q-10 0 -10 -11v-47h-1210v39q0 10 -13 10q-10 0 -10 -10v-39h-96q-10 0 -10 -12zM158 0v2042h1210v-389h-788v39q0 10 -13 10q-10 0 -10 -10v-39h-63q-10 0 -11 -13q0 -10 11 -10h63v-1206h-14q-10 0 -11 -12q0 -10 11 -11h14v-73q0 -10 10 -11 q12 0 13 11v75h778h2v-67q0 -10 10 -10q12 0 12 10v477h66q10 0 10 10q0 12 -10 13h-66v57q0 10 -12 10q-10 0 -10 -10v-59h-354v385h772v-1221z" />
<glyph unicode="h" horiz-adv-x="1974" d="M68 6q0 -10 10 -10h88v-70q0 -10 10 -10q12 0 12 10v72h392v-47q0 -10 10 -10q12 0 12 10v47l115 -2q12 0 12 12t-12 12h-115v793h793v-803h-56q-10 0 -10 -10q0 -12 10 -12h56v-13q0 -10 10 -10q12 0 12 10v15h387v-35q0 -10 11 -10q12 0 12 10v35h69q12 0 13 10 q0 12 -13 12h-69v2022h69q12 0 13 10q0 12 -13 12h-69v37q0 10 -12 10q-10 0 -11 -10v-39h-493q-10 0 -11 -12q0 -10 11 -10h84v-801h-805v803h131q12 0 12 10q0 12 -12 12h-131v45q0 10 -12 10q-10 0 -11 -10v-47h-374v39q0 10 -13 10q-10 0 -10 -10v-39h-76q-10 0 -10 -12 q0 -10 10 -10h76v-762q-4 -4 -4 -8v-1244h-88q-10 0 -10 -12zM188 20v1209q4 4 5 8v797h374v-842q0 -10 11 -10q12 0 12 10v18h805v-34q0 -10 10 -11q12 0 12 11v34h78q12 0 12 11q0 12 -12 12h-78v801h387v-2024h-387v803h49q12 0 13 10q0 12 -13 13h-49v20q0 10 -12 10 q-10 0 -10 -10v-22h-793v38q0 10 -12 11q-10 0 -10 -11v-38h-35q-10 0 -10 -13q0 -10 10 -10h35v-793z" />
<glyph unicode="i" horiz-adv-x="1638" d="M131 401q0 -10 10 -10h41v-366q-10 -2 -10 -11q0 -8 10 -10v-31q0 -10 11 -10q12 0 12 10v31h1218v-43q0 -10 11 -10q12 0 12 10v43h51q10 0 10 10q0 12 -10 13h-53v370h22q10 0 11 11q0 12 -11 12h-22v131q0 10 -12 10q-10 0 -11 -10v-133h-374v1610h108q10 0 10 10 q0 12 -10 12h-108v12q0 10 -13 11q-10 0 -10 -11v-14h-387v45q0 10 -12 10q-10 0 -11 -10v-45l-106 2q-10 0 -10 -12t10 -13h108v-1611h-413v159q0 10 -13 11q-10 0 -10 -11v-159h-39q-10 0 -10 -13zM203 25v368h413v-6q0 -10 11 -10q12 0 12 10v6h76q10 0 10 10 q0 12 -10 13h-78v1612h389v-1610h-53q-10 0 -10 -12q0 -10 10 -11h53v-16q0 -10 10 -10q12 0 13 10v18h374v-372h-1220z" />
<glyph unicode="j" horiz-adv-x="1976" d="M82 14q0 -10 10 -10h76v-33q0 -10 10 -10q12 0 12 10v35h1592v-6v-78q0 -10 10 -10q12 0 12 10v70q4 4 4 8v6h74q12 0 12 10q0 12 -12 13h-74l9 2015l59 2q10 0 10 10q0 12 -12 10h-57v27q0 10 -13 10q-10 0 -10 -10v-27l-403 -6v33q0 10 -13 10q-10 0 -10 -10v-33 l-59 -2q-10 0 -11 -12q0 -10 13 -8h57v-1610h-760l4 385h86q12 -2 13 8q0 12 -11 13l-88 2v49q0 10 -12 10q-10 0 -10 -10v-49l-400 6v30q0 10 -12 11q-10 0 -10 -11v-30h-49q-12 2 -13 -11q0 -10 11 -10l51 -2v-792h-76q-10 0 -10 -13zM190 27v792l400 -6l-4 -385h-68 q-10 0 -10 -12q0 -10 10 -10h68v-115q0 -10 10 -10q12 0 12 10v117h760v-121q0 -10 10 -11q12 0 13 11v121h16q12 0 12 10q0 12 -12 12h-16v1608l403 6l-8 -2017h-1596z" />
<glyph unicode="k" horiz-adv-x="1976" d="M31 10q0 -10 10 -10h149v-57q0 -10 11 -11q12 0 12 11v59h375v-6q0 -10 10 -10q12 0 12 10v6l95 -2q12 0 12 12t-12 13h-95v784h805v-791h-55q-10 0 -10 -12q0 -10 10 -10h55v-45q0 -10 10 -10q12 0 13 10v47h395v-14q0 -10 10 -11q12 0 12 11v14h78q12 0 13 10 q0 12 -13 12h-78v777q4 -2 10.5 0t6.5 10v504q0 10 -12 10q-10 0 -11 -10v-51h-395v786h115q12 0 12 10q0 12 -12 12h-115v17q0 10 -12 10q-10 0 -10 -10v-19h-396v27q0 10 -12 10q-10 0 -10 -10v-27h-35q-10 0 -10 -12q0 -10 10 -10h35v-821l-396 -2v821h91q12 0 12 10 q0 12 -12 12h-91v37q0 10 -12 10q-10 0 -10 -10v-39h-383v43q0 10 -12 11q-10 0 -11 -11v-43h-96q-10 0 -10 -12q0 -10 10 -10h96v-2017h-149q-10 0 -10 -13zM213 25v2017h383v-821l-92 -2q-10 0 -10 -13q0 -10 10 -8h92v-59q0 -10 10 -11q12 0 12 11v59l396 2v-4 q0 -10 10 -10q12 0 12 10v16v834h396v-786h-72q-10 0 -10 -13q0 -10 10 -10h72v-45q0 -10 10 -10q12 0 12 10v47h395v-385q-4 2 -10 0t-6 -10v-826h-395v791h82q12 0 12 10q0 12 -12 12h-82v21q0 10 -13 10q-10 0 -10 -10v-23h-805v35q0 10 -12 10q-10 0 -10 -10v-35h-35 q-10 0 -10 -12q0 -10 10 -10h35v-784z" />
<glyph unicode="l" horiz-adv-x="1808" d="M-55 10q0 -10 10 -10h84v-57q0 -10 10 -11q12 0 12 11v59h1588v-145q0 -10 10 -11q12 0 12 11v145l66 -2q12 0 12 12t-12 13h-66l4 383h176q12 0 13 10q0 12 -13 12h-176v70q0 10 -12 10q-10 0 -10 -10v-72h-1178v1622h111q12 0 12 10q0 12 -12 13h-111v36q0 10 -12 11 q-10 0 -10 -11v-38h-392v14q0 10 -12 10q-10 0 -10 -10v-14h-59q-10 0 -11 -13q0 -10 11 -10h59v-2025h-84q-10 0 -10 -13zM61 25v2025h392v-1622h-80q-10 0 -11 -12q0 -10 11 -10h80v-17q0 -10 10 -10q12 0 12 10v19h1178l-4 -385z" />
<glyph unicode="m" horiz-adv-x="2387" d="M80 2046q0 -10 10 -10h82v-2018h-57q-10 0 -11 -12q0 -10 11 -10h57v-43q0 -10 10 -10q12 0 13 10v45h362v-78q0 -10 10 -10q12 0 13 10v78l24 -2q10 -2 10 10q0 14 -10 14h-24v1616h407v-1216h-33q-10 0 -10 -12q0 -10 10 -11h33v-10q0 -10 10 -10q12 0 13 10v12h387 v-12q0 -10 10 -10q12 0 12 10v12h88q10 0 11 11q0 12 -11 12h-88v1218h355v-1626h-93q-10 0 -10 -12q0 -10 10 -10h93v-51q0 -10 10 -11q12 0 12 11v53h412v-84q0 -10 10 -10q12 0 12 10v84h68q10 0 10 10q0 12 -10 12h-68l8 2022h48q10 0 10 10q0 12 -10 12h-48v25 q0 10 -12 10q-10 0 -10 -10v-27h-2021v35q0 10 -13 10q-10 0 -10 -10v-35h-82q-10 0 -10 -12zM195 20v2018h2021l-8 -2024h-412v1626h64q10 0 10 11q0 12 -10 12h-64v16q0 10 -12 11q-10 0 -10 -11v-18h-355v22q0 10 -12 11q-10 0 -10 -11v-22h-45q-10 0 -11 -12 q0 -10 11 -11h45v-1218h-387v1216h90q10 0 10 11q0 12 -10 12h-90v8q0 10 -13 10q-10 0 -10 -10v-10h-407v37q0 10 -13 10q-10 0 -10 -10v-37h-41q-10 0 -10 -12q0 -10 10 -11h41v-1616z" />
<glyph unicode="n" horiz-adv-x="1949" d="M102 -4q0 -12 11 -12h37v-25q0 -10 10 -10q12 0 12 10v27h367v-45q0 -10 10 -11q12 0 12 11v45l47 -2q10 0 10 12t-10 12h-47v1628h813v-1634h-24q-10 0 -11 -10q0 -12 11 -12h24v-33q0 -10 10 -10q12 0 13 10v35h387v-35q0 -10 10 -10q12 0 12 10v35h31q10 0 10 12 q0 10 -10 10h-31v2034h13q10 0 10 10q0 12 -10 12h-13v43q0 10 -12 11q-10 0 -10 -11v-45h-1612v25q0 10 -12 10q-10 0 -10 -10v-25h-29q-10 0 -10 -12q0 -10 10 -10h29v-2030h-37q-10 0 -11 -10zM172 8v2030h1612v-2036h-387v1636q8 8 0 17v35q0 10 -13 10q-10 0 -10 -10 v-33h-813v84q0 10 -12 10q-10 0 -10 -10v-84h-25q-10 0 -10 -12q0 -10 10 -11h25v-1628z" />
<glyph unicode="o" horiz-adv-x="1945" d="M70 6q0 -10 10 -10h98v-78q0 -10 10 -10q12 0 13 10v80l1591 -2q10 0 10 12t-10 12h-1591v2026h1607v-2079q0 -10 11 -10q12 0 12 10v2079h35q10 0 10 10q0 12 -10 12h-35v46q0 10 -12 10q-10 0 -11 -10v-48h-1607v23q0 10 -13 10q-10 0 -10 -10v-23h-61q-10 0 -11 -12 q0 -10 11 -10h61v-2026h-98q-10 0 -10 -12zM528 1661q0 -10 11 -10h49v-1223h-33q-10 0 -10 -12q0 -10 10 -10h33v-41q0 -10 10 -11q12 0 12 11v43h797v-35q0 -10 10 -11q12 0 13 11v35l47 -2q10 0 10 12t-10 12h-47v1223h63q10 0 10 10q0 12 -10 12h-63v8q0 10 -13 11 q-10 0 -10 -11v-10h-797v51q0 10 -12 11q-10 0 -10 -11v-51h-49q-10 0 -11 -12zM610 430v1223h797v-1225z" />
<glyph unicode="p" horiz-adv-x="1538" d="M29 2046q0 -10 12 -10h119v-2009h-58q-12 2 -12 -11q0 -10 12 -10l58 -2v-61q0 -10 10 -11q12 0 12 11v61l375 -6v-68q0 -10 10 -10q12 0 13 10v68h129q10 -2 10 8q0 12 -10 12l-129 2v308q4 4 4 8v469h800v-43q0 -10 11 -10q12 0 12 10v43h59q10 0 11 10q0 12 -11 12 h-59v1211h92q10 0 10 10q0 12 -10 12h-92v49q0 10 -12 11q-10 0 -11 -11v-51h-1202v35q0 10 -12 10q-10 0 -10 -10v-35h-119q-12 0 -12 -12zM182 27v2011h1202v-1213h-800v47q0 10 -13 11q-10 0 -10 -11v-47h-37q-12 0 -12 -12q0 -10 12 -10h37v-455q-4 -4 -4 -8v-320z M483 1243q0 -10 13 -10h61v-33q0 -10 10 -10q13 0 13 10v35h399v-47q0 -10 10 -10q12 0 12 10v47h113q10 0 10 10q0 12 -10 12h-113l-6 388h107q10 0 10 10q0 12 -10 12h-107l-2 70q0 10 -12 10q-10 0 -10 -10l2 -72h-393v43q0 10 -13 10q-10 0 -10 -10v-43h-53 q-12 0 -12 -12q0 -10 12 -11h53v-387h-61q-12 0 -13 -12zM580 1255v390h393l6 -390h-399z" />
<glyph unicode="q" horiz-adv-x="2058" d="M43 0q0 -12 10 -10h103v-72q0 -10 10 -10q12 0 12 10v72l789 6v-338h-136q-10 0 -10 -10q0 -12 10 -13h136v-86q0 -10 10 -10q12 0 12 10v89h387v-72q0 -10 10 -10q12 0 13 10v72h129q10 0 10 12q0 10 -10 10h-129v346h387v-39q0 -10 10 -10q12 0 12 10v39h187 q10 0 10 10q0 12 -10 13h-187v2017h35q10 0 10 10q0 12 -10 12h-35v46q0 10 -12 10q-10 0 -10 -10v-48h-1608v23q0 10 -12 10q-10 0 -10 -10v-23h-62q-10 0 -10 -12q0 -10 10 -10h62v-2032l-103 -2q-10 0 -10 -10zM178 12v2034h1608v-2019h-387v39q0 10 -13 10 q-10 0 -10 -10v-39h-110q-10 0 -11 -13q0 -10 11 -10h110v-346h-387v338l55 2q10 0 11 10q0 12 -11 10h-55v64q0 10 -12 10q-10 0 -10 -10v-64zM506 1661q0 -10 10 -10h49v-1223h-33q-10 0 -10 -12q0 -10 10 -10h33v-41q0 -10 10 -11q12 0 13 11v43h796v-35q0 -10 11 -11 q12 0 12 11v35l47 -2q10 0 10 12t-10 12h-47v1223h63q10 0 11 10q0 12 -11 12h-63v8q0 10 -12 11q-10 0 -11 -11v-10h-796v51q0 10 -13 11q-10 0 -10 -11v-51h-49q-10 0 -10 -12zM588 430v1223h796v-1225z" />
<glyph unicode="r" horiz-adv-x="1923" d="M37 2046q0 -10 10 -10h121v-2009h-59q-10 2 -11 -11q0 -10 11 -10l59 -2v-61q0 -10 10 -11q12 0 12 11v61l375 -6v-68q0 -10 10 -10q12 0 13 10v68h127q12 -2 12 8q0 12 -12 12l-127 2v308q4 4 4 8v469h788v-787h-71q-10 0 -11 -12q0 -10 11 -10h71v-12q0 -10 11 -11 q12 0 12 11v14h395q2 -10 10 -10t13 10h45q12 0 12 10q0 12 -12 12h-45v1190h53q12 0 12 11q0 12 -12 12h-53v53q0 10 -13 10q-10 0 -10 -10v-55h-395v807h102q12 0 13 10q0 12 -13 12h-102v54q0 10 -12 10q-10 0 -11 -10v-56h-1190v35q0 10 -12 10q-10 0 -10 -10v-35h-121 q-10 0 -10 -12zM190 27v2011h1190v-807h-71q-10 0 -11 -12q0 -10 11 -11h71v-28q0 -10 11 -11q12 0 12 11v30h395v-1192h-395v787h70q12 0 12 10q0 12 -12 12h-70v50q0 10 -12 10q-10 0 -11 -10v-52h-788v47q0 10 -12 11q-10 0 -11 -11v-47h-39q-10 0 -10 -12q0 -10 10 -10 h39v-455q-4 -4 -4 -8v-320zM492 1243q0 -10 10 -10h63v-33q0 -10 10 -10q13 0 13 10v35h399v-47q0 -10 10 -10q12 0 13 10v47h110q12 0 13 10q0 12 -13 12h-112l-4 388h104q12 0 12 10q0 12 -12 12h-107v70q0 10 -12 10q-10 0 -10 -10v-72h-391v43q0 10 -13 10 q-10 0 -10 -10v-43h-55q-10 0 -10 -12q0 -10 10 -11h55v-387h-63q-10 0 -10 -12zM588 1255v390h393l4 -390h-397z" />
<glyph unicode="s" horiz-adv-x="1685" d="M-156 0q0 -12 11 -12h168v-51q0 -10 10 -11q12 0 12 11v53h1587h6v-94q0 -10 11 -11q12 0 12 11v1323h170q10 0 10 10q0 12 -10 12h-170v47q0 10 -12 10q-10 0 -11 -10v-49h-1015v387h624v-57q0 -10 10 -10q12 0 13 10v57h39q10 0 10 10q0 12 -10 13h-39v383h96 q10 0 10 10q0 12 -10 12h-96v72q0 10 -13 10q-10 0 -10 -10v-74h-1040v49q0 10 -12 10q-10 0 -11 -10v-49h-63q-10 0 -10 -12q0 -10 10 -10h63v-791q-10 0 -10 -10v-400h-37q-10 0 -10 -12q0 -10 10 -10h37v-35q0 -10 10 -10q12 0 13 10v37h1034v-389h-1186v39q0 10 -12 10 q-10 0 -10 -10v-39h-54q-10 0 -10 -12q0 -10 10 -11h54v-387h-168q-10 0 -11 -10zM45 10v389h1186v-73q0 -10 10 -11q12 0 12 11v483h76q10 0 10 10q0 12 -10 12h-76v29q0 10 -12 10q-10 0 -10 -10v-31h-1034v373q10 0 10 10v820h1040v-385h-624v63q0 10 -13 10 q-10 0 -10 -10v-63h-39q-10 0 -10 -13q0 -10 10 -10h39v-385h-106q-10 0 -11 -12q0 -10 11 -10h106q2 -8 10 -9q8 0 11 11h1017v-1209h-6h-1587z" />
<glyph unicode="t" horiz-adv-x="1976" d="M63 2038q0 -10 13 -10h51v-371h-23q-10 0 -10 -12q0 -10 12 -11h21v-131q0 -10 10 -10q12 0 13 10v133h620v-1609h-108q-10 0 -11 -13q0 -10 13 -10h106v-12q0 -10 10 -10q12 0 13 10v14h387v-45q0 -10 10 -10q12 0 12 10v45l109 -2q10 0 10 12t-12 13h-107v1611h637 v-159q0 -10 10 -11q12 0 13 11v159h41q10 0 10 11q0 12 -12 12h-39v367q8 2 8 10t-8 10v31q0 10 -13 10q-10 0 -10 -10v-31h-1689v43q0 10 -13 10q-10 0 -10 -10v-43h-53q-10 0 -11 -12zM150 1657v373h1689v-369h-637v6q0 10 -12 10q-10 0 -10 -10v-6h-78q-10 0 -10 -12 q0 -10 12 -11h76v-1611l-387 2v1607h53q10 0 10 11q0 12 -12 12h-51v16q0 10 -13 11q-10 0 -10 -11v-18h-620z" />
<glyph unicode="u" horiz-adv-x="1955" d="M104 2046q0 -10 13 -10h35v-2030h-27q-12 0 -12 -10q0 -12 12 -12h27v-23q0 -10 10 -10q12 0 12 10v25h1612v-45q0 -10 10 -11q12 0 12 11v45l15 -2q10 0 10 12t-10 12h-15v2034h33q10 0 10 10q0 12 -10 12h-33v33q0 10 -12 10q-10 0 -10 -10v-35h-387v35q0 10 -13 10 q-10 0 -10 -10v-35h-22q-12 0 -13 -12q0 -10 13 -10h22v-1632h-813v1630h49q10 0 11 10q0 12 -11 12h-49v43q0 10 -12 11q-10 0 -10 -11v-45h-367v27q0 10 -12 10q-10 0 -10 -10v-27h-35q-12 0 -13 -12zM174 8v2030h367v-1630h-23q-12 0 -12 -13q0 -10 12 -10h23v-82 q0 -10 10 -10q12 0 12 10v84h813v-33q0 -10 10 -10q12 0 13 10v35q12 8 0 17v1636h387v-2036z" />
<glyph unicode="v" horiz-adv-x="1955" d="M90 395q0 -10 12 -10h64v-55q0 -10 10 -11q12 0 12 11v57l367 -2v-379h-47q-12 0 -12 -10q0 -12 12 -12h47v-50q0 -10 10 -10q12 0 13 10v52h1222v-45q0 -10 10 -11q12 0 13 11v45h14q10 0 10 12q0 10 -10 10h-14v2034h32q10 0 11 10q0 12 -11 12h-32v33q0 10 -13 10 q-10 0 -10 -10v-35h-387v35q0 10 -12 10q-10 0 -10 -10v-35h-23q-12 0 -12 -12q0 -10 12 -10h23v-1632h-813v1630h49q10 0 10 10q0 12 -10 12h-49v43q0 10 -13 11q-10 0 -10 -11v-45h-367v27q0 10 -12 10q-10 0 -10 -10v-27h-35q-12 0 -12 -12q0 -10 12 -10h35v-1628h-64 q-12 0 -12 -13zM188 410v1628h367v-1630zM578 6v381h813v-33q0 -10 10 -10q12 0 12 10v35q12 8 0 17v1636h387v-2036h-1222z" />
<glyph unicode="w" horiz-adv-x="2392" d="M82 -35q0 -12 10 -12h82v-33q0 -10 10 -10q12 0 13 10v35h2021v-27q0 -10 10 -10q12 0 13 10v27l47 -2q12 0 12 12t-12 12h-47l-9 2022h68q12 0 12 10q0 12 -12 12h-68v82q0 10 -12 11q-10 0 -10 -11v-84h-412v54q0 10 -12 10q-10 0 -10 -10v-54h-93q-10 0 -10 -12 q0 -10 10 -10h93v-1624h-355v1220h88q12 0 13 11q0 12 -13 12h-88v10q0 10 -12 10q-10 0 -10 -10v-12h-387v12q0 10 -13 10q-10 0 -10 -10v-12h-33q-10 0 -10 -12q0 -10 10 -11h33v-1214h-407v1618h24q12 0 12 10q0 12 -12 12h-24v76q0 10 -13 10q-10 0 -10 -10v-78h-362v45 q0 10 -13 11q-10 0 -10 -11v-45h-57q-10 0 -11 -12q0 -10 11 -10h57v-2018h-82q-10 0 -10 -10zM197 -25v2020h362v-1618h-41q-10 0 -10 -12q0 -10 10 -11h41v-35q0 -10 10 -10q12 0 13 10v37h407v-10q0 -10 10 -10q12 0 13 10v10h90q12 0 12 11q0 12 -12 12h-90v1214h387 v-1220h-45q-10 0 -11 -13q0 -10 11 -10h45v-20q0 -10 10 -11q12 0 12 11v22h355v-18q0 -10 10 -10q12 0 12 10v18h64q12 0 12 10q0 12 -12 13h-64v1624h412l8 -2024h-2021z" />
<glyph unicode="x" horiz-adv-x="1951" d="M94 10q0 -10 12 -10h35v-139q0 -10 11 -11q12 0 12 11v141h379v-65q0 -10 10 -11q12 0 12 11v65l66 -2q10 0 10 12t-10 13h-66v788h776v-799h-55q-12 0 -12 -12q0 -10 12 -10h55v-31q0 -10 11 -10q12 0 12 10v33h383v-41q0 -10 10 -10q12 0 12 10v41h78q10 0 11 10 q0 12 -11 12h-78v1198h39q10 0 11 11q0 12 -11 12h-39v33q0 10 -12 10q-10 0 -10 -10v-35h-166l4 803h92q10 0 11 10q0 12 -11 12h-92v39q0 10 -12 10q-10 0 -10 -10v-41h-387v39q0 10 -13 10q-10 0 -10 -10v-39h-49q-12 0 -12 -12q0 -10 12 -10h49v-805h-387v794h59 q10 -2 11 9q0 12 -11 12l-59 2q-4 8 -12 8q-6 0 -11 -8l-399 6v35q0 10 -12 10q-10 0 -10 -10v-35h-33q-12 2 -13 -10q0 -10 13 -10l33 -2v-789h-158v19q0 10 -12 10q-10 0 -11 -10v-19h-26q-12 0 -13 -12q0 -10 13 -10h26v-1198h-35q-12 0 -12 -13zM164 25v1198h158v-64 q0 -10 10 -10q12 0 12 10v64h33q10 0 10 10q0 12 -10 12h-33v787l399 -7v-794h-24q-12 0 -12 -12q0 -10 12 -11h24v-30q0 -10 11 -11q12 0 12 11v32h387v-20q0 -10 10 -10q12 0 13 10v20h38q10 0 11 11q0 12 -11 12h-38v805h387l-4 -803h-25q-12 0 -12 -12q0 -10 12 -11h25 v-34q0 -10 10 -11q12 0 12 11v36h166v-1200h-383v799h49q10 0 10 10q0 12 -10 13h-49v32q0 10 -12 11q-10 0 -11 -11v-34h-776v40q0 10 -12 11q-10 0 -10 -11v-40h-72q-12 0 -12 -13q0 -10 12 -10h72v-788z" />
<glyph unicode="y" horiz-adv-x="1892" d="M63 834q0 -10 11 -11h69v-20q0 -10 11 -10q12 0 12 10v22h579v-815h-36q-10 0 -11 -10q0 -12 11 -12h36v-19q0 -10 11 -10q12 0 12 10v21h399v-41q0 -10 11 -10q12 0 12 10v41l76 -2q12 0 12 12t-12 12h-76v801h567v-33q0 -10 10 -10q12 0 13 10v33h37q12 0 12 10 q0 12 -12 13h-37v1194h37q12 0 12 10q0 12 -12 12h-37v16q0 10 -13 11q-10 0 -10 -11v-18h-371v23q0 10 -12 10q-10 0 -10 -10v-23h-100q-10 0 -11 -12q0 -10 11 -10h100v-781h-793v778h76q12 0 12 11q0 12 -12 12h-76v16q0 10 -12 11q-10 0 -10 -11v-18h-383v47 q0 10 -12 10q-10 0 -11 -10v-47h-37q-10 0 -10 -12q0 -10 10 -11h37v-1177h-69q-10 0 -11 -12zM166 846v1179h383v-778h-70q-10 0 -10 -12q0 -10 10 -10h885v-43q0 -10 10 -11q12 0 12 11v45h48q12 0 12 10q0 12 -12 12h-48v781h371v-1196h-567v34q0 10 -12 11 q-10 0 -11 -11v-34h-45q-10 0 -10 -13q0 -10 10 -10h45v-801l-399 2v813h37q12 0 12 11q0 12 -12 12h-37v72q0 10 -12 10q-10 0 -11 -10v-74h-579z" />
<glyph unicode="z" horiz-adv-x="1929" d="M88 6q0 -10 10 -10h39v-23q0 -10 10 -10q13 0 13 10v25h1595v-78q0 -10 10 -10q12 0 13 10v78h53q10 0 10 10q0 12 -10 12h-53v383h49q10 0 10 11q0 12 -10 12h-49v55q0 10 -13 11q-10 0 -10 -11v-57h-1171q-14 0 -11 -16h-24v426h1206v-33q0 -10 10 -10q12 0 13 10v33 h22q10 0 10 10q0 12 -10 12h-22v1178h49q10 0 10 10q0 12 -10 12h-49v21q0 10 -13 10q-10 0 -10 -10v-23h-1202v27q0 10 -12 10q-10 0 -11 -10v-27h-51q-10 0 -10 -12q0 -10 10 -10h51v-371h-47q-10 0 -10 -12q0 -10 10 -11h47v-26q0 -10 11 -10q12 0 12 10v28h805v-413 h-1198v43q0 10 -13 10q-10 0 -10 -10v-43h-4q-10 0 -10 -13q0 -10 10 -10h4v-1186h-39q-10 0 -10 -12zM160 18v1188h1198v-16q0 -10 10 -10q12 0 12 10v16h54q10 0 10 11q0 12 -10 12h-54v411q10 2 11 11q0 8 -11 10v27q0 10 -12 10q-10 0 -10 -10v-27h-805v373h1202v-1180 h-1206v10q0 10 -12 10q-10 0 -11 -10v-10h-18q-10 0 -10 -12q0 -10 10 -11h18v-423h-73q-10 0 -11 -13q0 -10 11 -10h73v-23q0 -10 11 -10q12 0 12 10v25h53q14 0 10 16h1143v-385h-1595z" />
<glyph unicode="&#x2000;" horiz-adv-x="1111" />
<glyph unicode="&#x2001;" horiz-adv-x="2222" />
<glyph unicode="&#x2002;" horiz-adv-x="1111" />
<glyph unicode="&#x2003;" horiz-adv-x="2222" />
<glyph unicode="&#x2004;" horiz-adv-x="740" />
<glyph unicode="&#x2005;" horiz-adv-x="555" />
<glyph unicode="&#x2006;" horiz-adv-x="370" />
<glyph unicode="&#x2007;" horiz-adv-x="370" />
<glyph unicode="&#x2008;" horiz-adv-x="277" />
<glyph unicode="&#x2009;" horiz-adv-x="444" />
<glyph unicode="&#x200a;" horiz-adv-x="123" />
<glyph unicode="&#x202f;" horiz-adv-x="444" />
<glyph unicode="&#x205f;" horiz-adv-x="555" />
<glyph unicode="&#x25fc;" horiz-adv-x="2109" d="M0 0v2109h2109v-2109h-2109z" />
</font>
</defs>
</svg>
